<svg width="30" height="30" viewBox="0 0 30 30" fill="none" xmlns="http://www.w3.org/2000/svg">
<path fill-rule="evenodd" clip-rule="evenodd" d="M6 3C4.34315 3 3 4.34315 3 6V9.5C3 10.0523 2.55228 10.5 2 10.5C1.44772 10.5 1 10.0523 1 9.5V6C1 3.23858 3.23858 1 6 1H9.5C10.0523 1 10.5 1.44772 10.5 2C10.5 2.55228 10.0523 3 9.5 3H6ZM19.5 2C19.5 1.44772 19.9477 1 20.5 1H24C26.7614 1 29 3.23858 29 6V9.5C29 10.0523 28.5523 10.5 28 10.5C27.4477 10.5 27 10.0523 27 9.5V6C27 4.34315 25.6569 3 24 3H20.5C19.9477 3 19.5 2.55228 19.5 2ZM2 19.5C2.55228 19.5 3 19.9477 3 20.5V24C3 25.6569 4.34315 27 6 27H9.5C10.0523 27 10.5 27.4477 10.5 28C10.5 28.5523 10.0523 29 9.5 29H6C3.23858 29 1 26.7614 1 24V20.5C1 19.9477 1.44772 19.5 2 19.5ZM28 19.5C28.5523 19.5 29 19.9477 29 20.5V24C29 26.7614 26.7614 29 24 29H20.5C19.9477 29 19.5 28.5523 19.5 28C19.5 27.4477 19.9477 27 20.5 27H24C25.6569 27 27 25.6569 27 24V20.5C27 19.9477 27.4477 19.5 28 19.5Z" fill="#71747D"/>
<path d="M9 10C9 9.44772 9.44772 9 10 9V9C10.5523 9 11 9.44772 11 10V12C11 12.5523 10.5523 13 10 13V13C9.44772 13 9 12.5523 9 12V10Z" fill="#71747D"/>
<path d="M19 10C19 9.44772 19.4477 9 20 9V9C20.5523 9 21 9.44772 21 10V12C21 12.5523 20.5523 13 20 13V13C19.4477 13 19 12.5523 19 12V10Z" fill="#71747D"/>
<path fill-rule="evenodd" clip-rule="evenodd" d="M14.9999 12.6001C15.4969 12.6001 15.8999 13.003 15.8999 13.5001V14.5001C15.8999 14.5395 15.9 14.5682 15.9009 14.5958C15.9272 14.5983 15.96 14.6001 16.0001 14.6001C16.4971 14.6001 16.9001 15.003 16.9001 15.5001C16.9001 15.9972 16.4971 16.4001 16.0001 16.4001C15.2809 16.4001 14.6853 16.1415 14.3532 15.5882C14.0957 15.1591 14.0987 14.6867 14.0998 14.5244C14.0998 14.5153 14.0999 14.5072 14.0999 14.5001V13.5001C14.0999 13.003 14.5028 12.6001 14.9999 12.6001Z" fill="#71747D"/>
<path fill-rule="evenodd" clip-rule="evenodd" d="M10.0363 17.0819C10.4955 16.8917 11.022 17.1098 11.2122 17.569C11.4182 18.0664 11.7202 18.5184 12.101 18.8991C12.4817 19.2799 12.9337 19.5819 13.4311 19.7879C13.9285 19.994 14.4617 20.1 15.0001 20.1C15.5385 20.1 16.0717 19.994 16.5691 19.7879C17.0665 19.5819 17.5185 19.2799 17.8992 18.8991C18.28 18.5184 18.582 18.0664 18.788 17.569C18.9782 17.1098 19.5047 16.8917 19.9639 17.0819C20.4231 17.2721 20.6412 17.7986 20.451 18.2578C20.1545 18.9737 19.7199 19.6241 19.172 20.1719C18.6242 20.7198 17.9738 21.1544 17.2579 21.4509C16.5421 21.7474 15.7749 21.9 15.0001 21.9C14.2253 21.9 13.4581 21.7474 12.7423 21.4509C12.0264 21.1544 11.376 20.7198 10.8282 20.1719C10.2803 19.6241 9.84572 18.9737 9.54921 18.2578C9.359 17.7986 9.57707 17.2721 10.0363 17.0819Z" fill="#71747D"/>
</svg>
